<?xml version="1.0" encoding="utf-8"?>
<!-- Generator: Adobe Illustrator 17.0.0, SVG Export Plug-In . SVG Version: 6.00 Build 0)  -->
<!DOCTYPE svg PUBLIC "-//W3C//DTD SVG 1.1//EN" "http://www.w3.org/Graphics/SVG/1.1/DTD/svg11.dtd">
<svg version="1.1" xmlns="http://www.w3.org/2000/svg" xmlns:xlink="http://www.w3.org/1999/xlink" x="0px" y="0px" width="560px"
	 height="560px" viewBox="0 0 560 560" enable-background="new 0 0 560 560" xml:space="preserve">
<g id="Calque_1">
	<path fill="#333333" d="M97.27,267.584l100.398-67.043c4.374-2.92,5.555-8.837,2.63-13.216c-2.92-4.374-8.833-5.56-13.216-2.63
		L86.684,251.739c-8.566,5.717-13.679,15.284-13.679,25.584s5.112,19.867,13.679,25.584l100.398,67.043
		c1.625,1.086,3.464,1.605,5.284,1.605c3.078,0,6.099-1.486,7.932-4.235c2.925-4.379,1.744-10.296-2.63-13.216L97.27,287.056
		c-3.306-2.21-5.207-5.756-5.207-9.739C92.063,273.34,93.963,269.795,97.27,267.584z"/>
	<path fill="#333333" d="M473.316,251.739l-100.403-67.043c-4.374-2.925-10.296-1.744-13.216,2.63
		c-2.925,4.379-1.744,10.296,2.63,13.216l100.398,67.043c3.306,2.21,5.207,5.756,5.207,9.734s-1.896,7.527-5.207,9.739
		l-100.393,67.048c-4.374,2.92-5.555,8.837-2.63,13.216c1.834,2.749,4.855,4.235,7.932,4.235c1.816,0,3.659-0.519,5.284-1.605
		l100.398-67.043c8.566-5.717,13.678-15.284,13.678-25.584C486.995,267.022,481.882,257.456,473.316,251.739z"/>
	<path fill="#333333" d="M326.314,133.879c-5.012-1.596-10.372,1.167-11.973,6.179l-86.839,272.09
		c-1.601,5.012,1.167,10.372,6.179,11.973c0.962,0.305,1.939,0.453,2.896,0.453c4.036,0,7.78-2.582,9.076-6.637l86.839-272.085
		C334.094,140.839,331.326,135.48,326.314,133.879z"/>
</g>
<g id="Calque_2">
	<circle fill="none" stroke="#333333" stroke-width="11" stroke-miterlimit="10" cx="280" cy="279" r="266"/>
</g>
</svg>
