<?xml version="1.0" encoding="utf-8"?>
<!-- Generator: Adobe Illustrator 17.0.0, SVG Export Plug-In . SVG Version: 6.00 Build 0)  -->
<!DOCTYPE svg PUBLIC "-//W3C//DTD SVG 1.1//EN" "http://www.w3.org/Graphics/SVG/1.1/DTD/svg11.dtd">
<svg version="1.1" id="Calque_1" xmlns="http://www.w3.org/2000/svg" xmlns:xlink="http://www.w3.org/1999/xlink" x="0px" y="0px"
	 width="560px" height="560px" viewBox="0 0 560 560" enable-background="new 0 0 560 560" xml:space="preserve">
<g id="Calque_1_1_">
	<path d="M77.408,267.343l111.311-74.33c4.849-3.237,6.159-9.798,2.916-14.653c-3.237-4.849-9.793-6.164-14.653-2.916
		L65.671,249.775c-9.497,6.338-15.166,16.945-15.166,28.365c0,11.42,5.668,22.027,15.166,28.365l111.311,74.33
		c1.802,1.204,3.841,1.779,5.858,1.779c3.413,0,6.762-1.648,8.794-4.695c3.243-4.855,1.934-11.415-2.916-14.653L77.408,288.931
		c-3.665-2.45-5.773-6.382-5.773-10.798C71.635,273.724,73.742,269.794,77.408,267.343z"/>
	<path d="M494.33,249.775l-111.317-74.33c-4.849-3.243-11.415-1.934-14.653,2.916c-3.243,4.855-1.934,11.415,2.916,14.653
		l111.311,74.33c3.665,2.45,5.773,6.382,5.773,10.792s-2.102,8.345-5.773,10.798L371.282,363.27
		c-4.849,3.237-6.159,9.798-2.916,14.653c2.033,3.048,5.383,4.695,8.794,4.695c2.013,0,4.057-0.575,5.858-1.779l111.311-74.33
		c9.497-6.338,15.165-16.945,15.165-28.365C509.496,266.72,503.827,256.114,494.33,249.775z"/>
	<path d="M331.349,119.104c-5.557-1.769-11.499,1.294-13.274,6.851l-96.278,301.666c-1.775,5.557,1.294,11.499,6.851,13.274
		c1.067,0.338,2.15,0.502,3.211,0.502c4.475,0,8.626-2.863,10.063-7.358l96.278-301.66
		C339.974,126.821,336.906,120.879,331.349,119.104z"/>
</g>
</svg>
