<?xml version="1.0" encoding="utf-8"?>
<!-- Generator: Adobe Illustrator 17.0.0, SVG Export Plug-In . SVG Version: 6.00 Build 0)  -->
<!DOCTYPE svg PUBLIC "-//W3C//DTD SVG 1.1//EN" "http://www.w3.org/Graphics/SVG/1.1/DTD/svg11.dtd">
<svg version="1.1" id="Calque_1" xmlns="http://www.w3.org/2000/svg" xmlns:xlink="http://www.w3.org/1999/xlink" x="0px" y="0px"
	 width="560px" height="560px" viewBox="0 0 560 560" enable-background="new 0 0 560 560" xml:space="preserve">
<path d="M50.427,265.658l126.135-84.23c5.495-3.669,6.979-11.103,3.304-16.604c-3.669-5.495-11.097-6.985-16.604-3.304
	L37.127,245.75c-10.762,7.183-17.185,19.202-17.185,32.143c0,12.941,6.423,24.96,17.185,32.143l126.135,84.23
	c2.041,1.365,4.352,2.017,6.638,2.017c3.867,0,7.662-1.867,9.966-5.321c3.675-5.501,2.191-12.935-3.304-16.604L50.427,290.121
	c-4.154-2.777-6.542-7.231-6.542-12.235C43.885,272.889,46.273,268.435,50.427,265.658z"/>
<path d="M522.873,245.75l-126.141-84.23c-5.495-3.675-12.935-2.191-16.604,3.304c-3.675,5.501-2.191,12.935,3.304,16.604
	l126.135,84.23c4.154,2.777,6.542,7.231,6.542,12.229c0,4.998-2.382,9.457-6.542,12.235l-126.129,84.236
	c-5.495,3.669-6.979,11.103-3.304,16.604c2.304,3.454,6.099,5.321,9.966,5.321c2.281,0,4.597-0.652,6.638-2.017l126.135-84.23
	c10.762-7.183,17.185-19.202,17.185-32.143C540.058,264.952,533.635,252.933,522.873,245.75z"/>
<path d="M338.186,97.677c-6.297-2.005-13.031,1.466-15.042,7.763l-109.1,341.84c-2.011,6.297,1.466,13.031,7.763,15.042
	c1.209,0.383,2.436,0.569,3.639,0.569c5.07,0,9.775-3.244,11.403-8.338l109.1-341.834
	C347.961,106.422,344.483,99.688,338.186,97.677z"/>
</svg>
