<?xml version="1.0" encoding="utf-8"?>
<!-- Generator: Adobe Illustrator 17.0.0, SVG Export Plug-In . SVG Version: 6.00 Build 0)  -->
<!DOCTYPE svg PUBLIC "-//W3C//DTD SVG 1.1//EN" "http://www.w3.org/Graphics/SVG/1.1/DTD/svg11.dtd">
<svg version="1.1" xmlns="http://www.w3.org/2000/svg" xmlns:xlink="http://www.w3.org/1999/xlink" x="0px" y="0px" width="560px"
	 height="560px" viewBox="0 0 560 560" enable-background="new 0 0 560 560" xml:space="preserve">
<g id="Calque_1">
	<g>
		<path fill="#333333" d="M384.449,249.88H440.2c2.285,0,4.132-1.851,4.132-4.132v-34.146c0-2.281-1.847-4.132-4.132-4.132h-55.751
			c-2.285,0-4.132,1.851-4.132,4.132v34.146C380.317,248.029,382.164,249.88,384.449,249.88z M388.581,215.734h47.488v25.882
			h-47.488V215.734z"/>
		<path fill="#333333" d="M285.887,239.24c-34.852,0-63.205,28.337-63.205,63.168c0,34.77,28.332,63.085,63.168,63.123h0.041
			c34.807,0,63.127-28.32,63.127-63.123C349.014,267.581,320.698,239.24,285.887,239.24z M285.887,357.272v4.132l-0.037-4.132
			c-30.274-0.033-54.909-24.643-54.909-54.859c0-30.274,24.646-54.904,54.942-54.904c30.253,0,54.863,24.63,54.863,54.904
			C340.75,332.663,316.141,357.272,285.887,357.272z"/>
		<path fill="#333333" d="M460.996,387.245c0-0.004-0.004-0.013-0.004-0.016l-0.024-123.915c0-0.013,0.008-0.021,0.008-0.033
			c0-0.013-0.008-0.021-0.008-0.033l-0.013-71.428c0-2.281-1.847-4.132-4.132-4.132h-8.293v-17.391c0-2.281-1.847-4.132-4.132-4.132
			h-50.293c-2.285,0-4.132,1.851-4.132,4.132v17.391h-34.171h-5.082l-11.421-37.662c-0.529-1.743-2.136-2.933-3.954-2.933h-81.745
			c-1.818,0-3.425,1.19-3.954,2.933l-11.416,37.662h-18.659h-5.326v-23.725c0-2.281-1.851-4.132-4.132-4.132h-25.609
			c-0.76-0.901-1.851-1.504-3.12-1.504h-17.645c-1.268,0-2.359,0.603-3.12,1.504h-23.741c-2.281,0-4.132,1.851-4.132,4.132v23.725
			h-25.031c-2.281,0-4.132,1.851-4.132,4.132v212.958c0,2.285,1.851,4.132,4.132,4.132H456.86c2.285,0,4.132-1.847,4.132-4.132
			l-0.004-17.511C460.992,387.257,460.996,387.249,460.996,387.245z M111.844,267.408h97.331
			c-4.991,10.937-7.623,22.916-7.623,35.001c0,38.084,25.436,70.308,60.214,80.7H111.844V267.408z M352.203,265.3
			c6.334,11.276,9.681,24.106,9.681,37.108c0,41.906-34.092,75.994-75.994,75.994c-41.947,0-76.072-34.088-76.072-75.994
			c0-12.652,3.182-25.188,9.193-36.249c13.342-24.538,38.967-39.781,66.883-39.781C313.372,226.378,338.78,241.29,352.203,265.3z
			 M370.144,302.413c0-12.11-2.653-24.072-7.648-35.001h90.207l0.021,115.701H309.988
			C344.733,372.717,370.144,340.492,370.144,302.413z M398.237,174.423h42.029v13.259h-42.029V174.423z M256.662,155.351h75.618
			l9.801,32.332h-18.627v-22.54c0-1.095-0.434-2.149-1.211-2.921c-0.777-0.773-1.822-1.211-2.921-1.211h-49.698
			c-2.281,0-4.132,1.851-4.132,4.132v22.535h-18.626L256.662,155.351z M273.755,186.183v-16.9h41.434v16.903h-41.434V186.183z
			 M205.984,187.683h-7.326V168.09h7.326V187.683z M167.872,185.823v-15.949h9.384v15.949H167.872z M190.391,185.823h-4.871v-15.949
			h4.871V185.823L190.391,185.823z M153.786,169.875h5.822v15.949h-5.822C153.786,185.823,153.786,169.875,153.786,169.875z
			 M141.006,168.094h4.516v19.593h-4.516V168.094z M219.57,195.946h128.072c0.004,0,0.008,0,0.013,0c0.004,0,0.008,0,0.013,0h8.14
			h96.885l0.013,63.197h-94.571c-15.168-25.353-42.6-41.034-72.246-41.034c-29.783,0-57.186,15.685-72.386,41.116
			c-0.144-0.016-0.269-0.087-0.422-0.087H111.844v-63.193L219.57,195.946L219.57,195.946z M111.844,400.64v-9.264h340.884v9.264
			H111.844z"/>
		<path fill="#333333" d="M200.175,237.455c8.276,0,15.011-6.735,15.011-15.016c0-8.276-6.735-15.011-15.011-15.011
			c-8.28,0-15.019,6.735-15.019,15.011C185.156,230.721,191.891,237.455,200.175,237.455z M200.175,215.697
			c3.718,0,6.747,3.024,6.747,6.747c0,3.723-3.024,6.752-6.747,6.752s-6.756-3.029-6.756-6.752
			C193.419,218.721,196.448,215.697,200.175,215.697z"/>
		<path fill="#333333" d="M314.07,271.279c-3.785-2.731-7.652-4.524-11.189-5.508c-3.479-1.145-6.665-1.351-9.189-1.492
			c-2.628,0-4.549,0.211-5.83,0.475c-1.297,0.243-1.991,0.372-1.991,0.372s0.678,0.198,1.946,0.57
			c1.297,0.256,3.112,1.025,5.227,1.785c2.144,0.967,4.636,2.227,7.19,3.996c2.583,1.703,5.107,4.103,7.438,6.867
			c4.665,5.537,8.049,13.329,8.036,21.659c-0.07,0.95,0.013,2.281-0.136,2.925l-0.19,1.959l-0.095,0.967l-0.169,0.67
			c-0.376,1.661-0.934,3.851-1.743,5.776c-1.607,3.909-3.95,7.582-6.987,10.598c-3.024,3.037-6.698,5.375-10.607,6.974
			c-4.02,1.545-7.925,2.368-12.499,2.314c-3.892-0.025-7.987-0.793-11.664-2.248c-3.686-1.422-6.991-3.454-9.772-5.768
			c-2.765-2.322-5.165-4.847-6.867-7.429c-1.772-2.549-3.024-5.045-4-7.185c-0.777-2.178-1.537-3.958-1.793-5.223
			c-0.372-1.268-0.574-1.946-0.574-1.946s-0.132,0.694-0.376,1.991c-0.264,1.318-0.471,3.268-0.479,5.83
			c0.136,2.52,0.343,5.714,1.484,9.198c0.983,3.541,2.776,7.409,5.508,11.197c5.413,7.578,15.015,14.689,27.791,16.222
			c5.673,0.76,12.544,0.264,18.68-1.868c6.251-2.05,12.069-5.693,16.85-10.375c4.681-4.785,8.314-10.602,10.367-16.854
			c1.103-3.123,1.703-6.206,2.037-9.78l0.124-1.289l0.016-1.008l0.008-1.967c0.087-1.962-0.232-3.227-0.343-4.842
			c-0.764-6.111-2.909-11.763-5.826-16.441C321.525,277.721,317.843,274.01,314.07,271.279z"/>
	</g>
</g>
<g id="Calque_2">
	<circle fill="none" stroke="#333333" stroke-width="11" stroke-miterlimit="10" cx="280" cy="279" r="266"/>
</g>
</svg>
