<?xml version="1.0" encoding="utf-8"?>
<!-- Generator: Adobe Illustrator 17.0.0, SVG Export Plug-In . SVG Version: 6.00 Build 0)  -->
<!DOCTYPE svg PUBLIC "-//W3C//DTD SVG 1.1//EN" "http://www.w3.org/Graphics/SVG/1.1/DTD/svg11.dtd">
<svg version="1.1" id="Calque_1" xmlns="http://www.w3.org/2000/svg" xmlns:xlink="http://www.w3.org/1999/xlink" x="0px" y="0px"
	 width="560px" height="560px" viewBox="0 0 560 560" enable-background="new 0 0 560 560" xml:space="preserve">
<g id="Calque_1_1_">
	<g>
		<path d="M405.571,245.434h68.527c2.809,0,5.079-2.275,5.079-5.079v-41.971c0-2.804-2.27-5.079-5.079-5.079h-68.527
			c-2.809,0-5.079,2.275-5.079,5.079v41.971C400.492,243.159,402.762,245.434,405.571,245.434z M410.65,203.463h58.371v31.813
			H410.65V203.463z"/>
		<path d="M284.422,232.356c-42.839,0-77.69,34.831-77.69,77.644c0,42.738,34.825,77.542,77.644,77.589h0.05
			c42.784,0,77.594-34.81,77.594-77.589C362.016,267.191,327.21,232.356,284.422,232.356z M284.422,377.437v5.079l-0.045-5.079
			c-37.212-0.041-67.492-30.29-67.492-67.431c0-37.212,30.294-67.486,67.533-67.486c37.186,0,67.436,30.274,67.436,67.486
			C351.858,347.188,321.609,377.437,284.422,377.437z"/>
		<path d="M499.66,414.279c0-0.005-0.005-0.016-0.005-0.02l-0.03-152.312c0-0.016,0.01-0.026,0.01-0.041
			c0-0.016-0.01-0.026-0.01-0.041l-0.016-87.797c0-2.804-2.27-5.079-5.079-5.079h-10.193v-21.376c0-2.804-2.27-5.079-5.079-5.079
			H417.44c-2.809,0-5.079,2.275-5.079,5.079v21.376h-42.002h-6.247l-14.038-46.293c-0.65-2.142-2.625-3.605-4.86-3.605H244.736
			c-2.235,0-4.21,1.463-4.86,3.605l-14.032,46.293h-22.935h-6.547v-29.162c0-2.804-2.275-5.079-5.079-5.079h-31.478
			c-0.934-1.107-2.275-1.849-3.835-1.849h-21.689c-1.559,0-2.9,0.741-3.835,1.849h-29.182c-2.804,0-5.079,2.275-5.079,5.079v29.162
			H65.419c-2.804,0-5.079,2.275-5.079,5.079V435.83c0,2.809,2.275,5.079,5.079,5.079h429.158c2.809,0,5.079-2.27,5.079-5.079
			l-0.005-21.524C499.655,414.293,499.66,414.283,499.66,414.279z M70.494,266.979H190.13c-6.135,13.443-9.37,28.168-9.37,43.022
			c0,46.812,31.265,86.42,74.013,99.194H70.494V266.979z M365.935,264.388c7.786,13.86,11.9,29.63,11.9,45.612
			c0,51.51-41.905,93.409-93.409,93.409c-51.56,0-93.505-41.9-93.505-93.409c0-15.551,3.911-30.96,11.3-44.556
			c16.4-30.161,47.897-48.898,82.21-48.898C318.206,216.546,349.436,234.875,365.935,264.388z M387.988,310.006
			c0-14.885-3.261-29.589-9.401-43.022h110.88l0.026,142.216H314.046C356.753,396.421,387.988,356.811,387.988,310.006z
			 M422.519,152.685h51.661v16.298h-51.661V152.685z M248.499,129.242h92.947l12.047,39.741h-22.896v-27.705
			c0-1.346-0.533-2.641-1.489-3.59c-0.955-0.95-2.24-1.489-3.59-1.489h-61.087c-2.804,0-5.079,2.275-5.079,5.079v27.699h-22.894
			L248.499,129.242z M269.51,167.14v-20.773h50.929v20.777H269.51V167.14z M186.208,168.983h-9.005V144.9h9.005V168.983z
			 M139.362,166.697v-19.604h11.535v19.604H139.362z M167.041,166.697h-5.987v-19.604h5.987V166.697L167.041,166.697z
			 M122.048,147.094h7.156v19.604h-7.156C122.048,166.697,122.048,147.094,122.048,147.094z M106.339,144.905h5.551v24.083h-5.551
			V144.905z M202.907,179.14h157.422c0.005,0,0.01,0,0.016,0c0.005,0,0.01,0,0.016,0h10.005h119.088l0.016,77.68H373.227
			c-18.644-31.163-52.363-50.438-88.802-50.438c-36.608,0-70.291,19.279-88.975,50.538c-0.177-0.02-0.331-0.107-0.519-0.107H70.494
			v-77.675L202.907,179.14L202.907,179.14z M70.494,430.743v-11.387h419.004v11.387H70.494z"/>
		<path d="M179.067,230.162c10.173,0,18.451-8.278,18.451-18.457c0-10.173-8.278-18.451-18.451-18.451
			c-10.178,0-18.461,8.278-18.461,18.451C160.607,221.884,168.885,230.162,179.067,230.162z M179.067,203.417
			c4.57,0,8.293,3.717,8.293,8.293c0,4.576-3.717,8.299-8.293,8.299s-8.304-3.723-8.304-8.299
			C170.763,207.134,174.486,203.417,179.067,203.417z"/>
		<path d="M319.064,271.737c-4.652-3.357-9.406-5.561-13.753-6.77c-4.276-1.407-8.192-1.661-11.295-1.834
			c-3.23,0-5.592,0.259-7.166,0.584c-1.594,0.299-2.447,0.457-2.447,0.457s0.833,0.243,2.392,0.701
			c1.594,0.315,3.825,1.26,6.425,2.194c2.635,1.189,5.698,2.737,8.838,4.912c3.175,2.093,6.277,5.043,9.143,8.441
			c5.734,6.806,9.894,16.384,9.878,26.623c-0.086,1.168,0.016,2.804-0.167,3.595l-0.234,2.408l-0.117,1.189l-0.208,0.824
			c-0.462,2.042-1.148,4.734-2.142,7.1c-1.975,4.805-4.855,9.32-8.588,13.027c-3.717,3.733-8.233,6.607-13.038,8.572
			c-4.941,1.899-9.741,2.911-15.363,2.844c-4.784-0.031-9.817-0.975-14.337-2.763c-4.531-1.748-8.593-4.246-12.011-7.09
			c-3.399-2.854-6.349-5.958-8.441-9.131c-2.178-3.133-3.717-6.201-4.917-8.832c-0.955-2.677-1.889-4.865-2.204-6.42
			c-0.457-1.559-0.706-2.392-0.706-2.392s-0.162,0.853-0.462,2.447c-0.325,1.62-0.579,4.017-0.589,7.166
			c0.167,3.098,0.422,7.023,1.824,11.306c1.208,4.352,3.412,9.107,6.77,13.763c6.654,9.315,18.456,18.055,34.16,19.94
			c6.973,0.934,15.419,0.324,22.961-2.296c7.684-2.52,14.835-6.998,20.711-12.753c5.754-5.882,10.219-13.032,12.743-20.716
			c1.356-3.839,2.093-7.628,2.504-12.021l0.152-1.584l0.02-1.239l0.01-2.418c0.107-2.412-0.285-3.967-0.422-5.952
			c-0.939-7.511-3.576-14.459-7.161-20.209C328.227,279.655,323.701,275.094,319.064,271.737z"/>
	</g>
</g>
</svg>
