<?xml version="1.0" encoding="utf-8"?>
<!-- Generator: Adobe Illustrator 17.0.0, SVG Export Plug-In . SVG Version: 6.00 Build 0)  -->
<!DOCTYPE svg PUBLIC "-//W3C//DTD SVG 1.1//EN" "http://www.w3.org/Graphics/SVG/1.1/DTD/svg11.dtd">
<svg version="1.1" id="Calque_1" xmlns="http://www.w3.org/2000/svg" xmlns:xlink="http://www.w3.org/1999/xlink" x="0px" y="0px"
	 width="560px" height="560px" viewBox="0 0 560 560" enable-background="new 0 0 560 560" xml:space="preserve">
<g>
	<path d="M416.539,188.061h75.342c3.088,0,5.584-2.502,5.584-5.584v-46.144c0-3.082-2.496-5.584-5.584-5.584h-75.342
		c-3.088,0-5.584,2.502-5.584,5.584v46.144C410.955,185.559,413.451,188.061,416.539,188.061z M422.123,141.916h64.175v34.977
		h-64.175V141.916z"/>
	<path d="M283.343,173.682c-47.099,0-85.415,38.294-85.415,85.365c0,46.988,38.288,85.253,85.365,85.304h0.056
		c47.038,0,85.309-38.271,85.309-85.304C368.653,211.982,330.387,173.682,283.343,173.682z M283.343,333.189v5.584l-0.05-5.584
		c-40.912-0.045-74.203-33.302-74.203-74.136c0-40.912,33.307-74.197,74.248-74.197c40.884,0,74.142,33.285,74.142,74.197
		C357.485,299.932,324.228,333.189,283.343,333.189z"/>
	<path d="M519.984,373.694c0-0.006-0.006-0.017-0.006-0.022l-0.033-167.458c0-0.017,0.011-0.028,0.011-0.045
		c0-0.017-0.011-0.028-0.011-0.045l-0.017-96.527c0-3.082-2.496-5.584-5.584-5.584h-11.207V80.511c0-3.082-2.496-5.584-5.584-5.584
		h-67.966c-3.088,0-5.584,2.502-5.584,5.584v23.502h-46.178h-6.868l-15.434-50.896c-0.715-2.356-2.887-3.964-5.344-3.964h-110.47
		c-2.457,0-4.629,1.608-5.344,3.964l-15.428,50.896h-25.216h-7.197V71.951c0-3.082-2.502-5.584-5.584-5.584h-34.608
		c-1.027-1.217-2.502-2.033-4.216-2.033H118.27c-1.714,0-3.188,0.815-4.216,2.033H81.97c-3.082,0-5.584,2.502-5.584,5.584v32.062
		H42.559c-3.082,0-5.584,2.502-5.584,5.584v287.789c0,3.088,2.502,5.584,5.584,5.584h471.836c3.088,0,5.584-2.496,5.584-5.584
		l-0.006-23.664C519.979,373.711,519.984,373.699,519.984,373.694z M48.143,211.747h131.532c-6.745,14.78-10.302,30.968-10.302,47.3
		c0,51.466,34.374,95.014,81.373,109.057H48.143V211.747z M372.963,208.899c8.56,15.238,13.083,32.576,13.083,50.148
		c0,56.631-46.072,102.697-102.697,102.697c-56.687,0-102.803-46.066-102.803-102.697c0-17.098,4.3-34.039,12.424-48.987
		C211,176.899,245.63,156.3,283.355,156.3C320.487,156.3,354.822,176.452,372.963,208.899z M397.208,259.053
		c0-16.366-3.585-32.531-10.336-47.3h121.905l0.028,156.357H315.914C362.868,354.061,397.208,310.513,397.208,259.053z
		 M435.172,86.089h56.798v17.918h-56.798V86.089z M243.849,60.315h102.189l13.245,43.693h-25.172v-30.46
		c0-1.48-0.586-2.904-1.636-3.948c-1.05-1.044-2.462-1.636-3.948-1.636h-67.162c-3.082,0-5.584,2.502-5.584,5.584v30.454H230.61
		L243.849,60.315z M266.949,101.981V79.143h55.994v22.843h-55.994V101.981z M175.364,104.008h-9.9V77.53h9.9V104.008z
		 M123.859,101.495V79.942h12.681v21.553H123.859z M154.291,101.495h-6.583V79.942h6.583V101.495z M104.824,79.942h7.868v21.553
		h-7.868V79.942z M87.553,77.535h6.103v26.478h-6.103V77.535z M193.724,115.175h173.075c0.006,0,0.011,0,0.017,0s0.011,0,0.017,0h11
		h130.929l0.017,85.404H380.976c-20.498-34.262-57.569-55.453-97.633-55.453c-40.248,0-77.28,21.196-97.822,55.564
		c-0.195-0.022-0.363-0.117-0.57-0.117H48.143v-85.399H193.724z M48.143,391.796v-12.519h460.668v12.519H48.143z"/>
	<path d="M167.513,171.27c11.184,0,20.286-9.102,20.286-20.292c0-11.184-9.102-20.286-20.286-20.286
		c-11.19,0-20.297,9.102-20.297,20.286C147.216,162.169,156.318,171.27,167.513,171.27z M167.513,141.866
		c5.025,0,9.118,4.087,9.118,9.118c0,5.031-4.087,9.124-9.118,9.124s-9.13-4.093-9.13-9.124S162.477,141.866,167.513,141.866z"/>
	<path d="M321.43,216.979c-5.115-3.691-10.341-6.114-15.121-7.443c-4.702-1.547-9.007-1.826-12.418-2.016
		c-3.551,0-6.148,0.285-7.879,0.642c-1.753,0.329-2.691,0.503-2.691,0.503s0.916,0.268,2.63,0.771
		c1.753,0.346,4.205,1.385,7.064,2.412c2.898,1.307,6.265,3.01,9.716,5.4c3.49,2.301,6.902,5.545,10.051,9.28
		c6.304,7.482,10.877,18.013,10.86,29.27c-0.095,1.284,0.017,3.082-0.184,3.953l-0.257,2.647l-0.128,1.307l-0.229,0.905
		c-0.508,2.245-1.262,5.204-2.356,7.806c-2.172,5.282-5.338,10.246-9.442,14.322c-4.087,4.104-9.051,7.264-14.334,9.425
		c-5.433,2.088-10.71,3.2-16.891,3.127c-5.26-0.034-10.793-1.072-15.763-3.038c-4.981-1.921-9.448-4.668-13.206-7.795
		c-3.736-3.138-6.98-6.55-9.28-10.04c-2.395-3.445-4.087-6.818-5.405-9.71c-1.05-2.943-2.077-5.349-2.423-7.058
		c-0.503-1.714-0.776-2.63-0.776-2.63s-0.179,0.938-0.508,2.691c-0.357,1.781-0.637,4.417-0.648,7.879
		c0.184,3.406,0.463,7.722,2.005,12.43c1.329,4.785,3.752,10.012,7.443,15.132c7.315,10.241,20.291,19.85,37.557,21.922
		c7.667,1.027,16.952,0.357,25.244-2.524c8.448-2.77,16.31-7.694,22.771-14.021c6.326-6.466,11.235-14.328,14.01-22.776
		c1.491-4.221,2.301-8.387,2.753-13.217l0.168-1.742l0.022-1.362l0.011-2.658c0.117-2.652-0.313-4.361-0.463-6.544
		c-1.033-8.258-3.931-15.897-7.873-22.218C331.504,225.684,326.528,220.67,321.43,216.979z"/>
</g>
</svg>
