<?xml version="1.0" encoding="utf-8"?>
<!-- Generator: Adobe Illustrator 17.0.0, SVG Export Plug-In . SVG Version: 6.00 Build 0)  -->
<!DOCTYPE svg PUBLIC "-//W3C//DTD SVG 1.1//EN" "http://www.w3.org/Graphics/SVG/1.1/DTD/svg11.dtd">
<svg version="1.1" xmlns="http://www.w3.org/2000/svg" xmlns:xlink="http://www.w3.org/1999/xlink" x="0px" y="0px" width="560px"
	 height="560px" viewBox="0 0 560 560" enable-background="new 0 0 560 560" xml:space="preserve">
<g id="Calque_1">
	<path fill="#333333" d="M502.719,305.29c2.208-3.28,2.215-7.56,0-10.845c-0.4-0.594-10.149-14.94-28.07-32.854
		c-20.963-20.968-50.75-44.481-88.058-58.426c-19.284-51.666-88.755-61.912-133.244-48.961
		c-53.675,15.604-97.839,62.565-98.427,102.971c-7.966,6.081-14.978,11.834-20.865,16.921c-3.131-8.088-8.819-16.521-16.463-24.17
		l-1.666-1.627c-18.787-17.851-49.356-16.462-50.647-16.392c-4.926,0.258-8.871,4.184-9.147,9.109
		c-0.071,1.213-1.51,29.885,16.643,48.031l0.846,0.82c4.029,3.835,8.225,7.107,12.454,9.845c-4.384,2.808-8.741,6.165-12.925,10.142
		c-19.013,18.082-17.548,47.606-17.475,48.858c0.143,2.452,1.195,4.662,2.822,6.295c1.64,1.633,3.867,2.686,6.333,2.822
		c1.297,0.065,31.834,1.458,50.647-16.41c8.632-8.205,14.92-17.405,18.232-26.211c7.107,6.101,15.913,13.273,26.115,20.807
		c-0.213,0.2-0.471,0.427-0.665,0.614c-18.522,18.503-16.398,43.609-16.301,44.668c0.213,2.304,1.233,4.397,2.796,5.953
		c1.388,1.388,3.215,2.351,5.248,2.699c1.02,0.167,25.159,3.957,44.132-15.01c2.447-2.434,5.571-6.347,8.393-10.626
		c33.958,18.98,74.552,34.558,116.458,34.565C431.563,408.874,499.858,309.512,502.719,305.29z M86.966,275.831l-0.49-0.479
		c-6.753-6.753-9.393-16.424-10.413-23.596c7.986,0.942,19.11,3.545,26.521,10.582l1.317,1.278
		c9.478,9.478,13.654,18.91,13.584,24.067c-0.013,1.052-0.226,1.731-0.406,1.898C115.068,291.494,101.602,289.711,86.966,275.831z
		 M460.956,275.296c10.162,10.162,17.522,19.141,21.698,24.558c-5.945,7.677-18.381,22.512-36.27,37.947
		c-12.066-8.013-26.456-9.851-33.99-9.491c-5.339,0.258-9.458,4.803-9.2,10.142c0.13,2.499,1.187,4.732,2.828,6.378
		c1.866,1.859,4.48,2.963,7.32,2.828c3.892-0.188,10.407,0.677,16.559,3.215c-14.112,10.271-30.556,19.968-49.096,27.07
		c-15.275-16.044-24.874-45.727-24.874-77.845c0.006-32.486,9.806-62.383,25.282-78.259
		C414.802,234.708,441.82,256.161,460.956,275.296z M340.134,335.413c-6.778,2.802-20.336,5.823-29.794,5.829
		c-20.014,0-33.81-9.741-40.898-16.379c7.902-6.804,23.26-17.152,43.596-17.152c6.984,0,17.902,1.718,23.905,3.519
		C337.461,319.563,338.52,327.673,340.134,335.413z M258.757,172.802c31.098-9.052,78.736-4.61,101.016,22.434
		c-12.615-2.749-25.894-4.371-39.878-4.364c-53.475,0-104.385,24.881-142.282,50.103
		C187.445,214.481,218.04,184.641,258.757,172.802z M75.623,347.996c1.052-7.366,3.782-17.353,10.871-24.093
		c14.648-13.899,28.122-15.656,30.15-13.744c0.167,0.167,0.406,0.865,0.388,2.104c-0.065,5.519-4.694,15.429-14.893,25.133
		C94.688,344.451,83.59,347.059,75.623,347.996z M162.777,380.604c1.039-5.966,3.667-13.867,10.103-20.305
		c0.716-0.716,1.859-1.724,3.202-2.802c3.447,2.298,7.024,4.61,10.679,6.895c-1.872,2.763-3.879,5.308-5.391,6.824
		C175.205,377.402,168.162,379.765,162.777,380.604z M205.555,353.335c-0.439-0.31-0.904-0.588-1.395-0.826
		c-7.999-4.777-15.565-9.715-22.596-14.603c-0.174-0.135-0.362-0.278-0.554-0.4c-21.44-14.971-37.863-29.458-46.579-37.624
		c23.507-21.885,102.965-89.646,185.484-89.654c14.552,0,28.302,1.963,41.273,5.256c-14.067,18.431-22.893,45.65-24.358,75.721
		c-9.296-2.086-19.399-2.86-23.783-2.86c-39.129,0-63.41,28.729-64.429,29.949c-2.808,3.384-2.983,8.231-0.432,11.813
		c0.265,0.368,2.304,3.176,6.081,6.953c9.02,9.025,27.928,23.551,56.096,23.558c6.289-0.006,22.453-1.736,34.926-6.43
		c3.983,11.453,9.244,21.672,15.572,30.111c-12.867,3.273-26.527,5.222-40.956,5.222C278.706,389.5,238.486,372.812,205.555,353.335
		z M387.713,304.903c5.146,5.146,11.983,7.979,19.246,7.96c7.276,0,14.112-2.828,19.251-7.96c5.139-5.139,7.966-11.983,7.96-19.251
		c0.006-7.276-2.828-14.119-7.966-19.258c-5.139-5.139-11.983-7.979-19.232-7.966c-7.276-0.006-14.125,2.828-19.258,7.973
		c-5.139,5.139-7.973,11.975-7.96,19.251C379.741,292.92,382.574,299.769,387.713,304.903z M406.965,277.78
		c2.086,0,4.053,0.807,5.532,2.286c1.484,1.484,2.298,3.46,2.298,5.565c0,2.106-0.82,4.079-2.291,5.558
		c-1.478,1.478-3.454,2.292-5.565,2.298c-4.196,0-7.851-3.667-7.851-7.857c0.006-2.098,0.825-4.079,2.304-5.565
		C402.892,278.595,404.854,277.774,406.965,277.78z"/>
</g>
<g id="Calque_2">
	<circle fill="none" stroke="#333333" stroke-width="11" stroke-miterlimit="10" cx="280" cy="279" r="266"/>
</g>
</svg>
