<?xml version="1.0" encoding="utf-8"?>
<!-- Generator: Adobe Illustrator 17.0.0, SVG Export Plug-In . SVG Version: 6.00 Build 0)  -->
<!DOCTYPE svg PUBLIC "-//W3C//DTD SVG 1.1//EN" "http://www.w3.org/Graphics/SVG/1.1/DTD/svg11.dtd">
<svg version="1.1" id="Calque_1" xmlns="http://www.w3.org/2000/svg" xmlns:xlink="http://www.w3.org/1999/xlink" x="0px" y="0px"
	 width="560px" height="560px" viewBox="0 0 560 560" enable-background="new 0 0 560 560" xml:space="preserve">
<path d="M546.825,311.249c2.624-3.899,2.633-8.986,0-12.891c-0.476-0.706-12.064-17.758-33.365-39.052
	c-24.917-24.924-60.323-52.872-104.669-69.447c-22.922-61.412-105.498-73.591-158.379-58.197
	c-63.8,18.547-116.295,74.367-116.994,122.396c-9.469,7.228-17.804,14.066-24.801,20.113c-3.722-9.614-10.483-19.637-19.568-28.73
	l-1.98-1.934c-22.331-21.218-58.666-19.568-60.201-19.484c-5.855,0.307-10.545,4.973-10.873,10.827
	c-0.084,1.442-1.795,35.522,19.782,57.092l1.005,0.975c4.789,4.558,9.777,8.448,14.803,11.702
	c-5.211,3.338-10.39,7.328-15.363,12.055c-22.6,21.493-20.858,56.587-20.772,58.075c0.17,2.915,1.42,5.541,3.354,7.482
	c1.949,1.941,4.597,3.193,7.528,3.354c1.542,0.077,37.839,1.733,60.201-19.506c10.26-9.753,17.734-20.688,21.671-31.156
	c8.448,7.252,18.915,15.777,31.041,24.732c-0.253,0.238-0.56,0.507-0.79,0.73c-22.016,21.993-19.491,51.835-19.376,53.094
	c0.253,2.739,1.466,5.226,3.323,7.076c1.65,1.65,3.821,2.794,6.238,3.208c1.213,0.199,29.905,4.704,52.457-17.841
	c2.908-2.893,6.622-7.544,9.976-12.631c40.364,22.56,88.616,41.077,138.427,41.085C462.246,434.373,543.424,316.268,546.825,311.249
	z M52.644,276.233l-0.582-0.569c-8.027-8.027-11.165-19.522-12.377-28.047c9.493,1.12,22.715,4.214,31.524,12.578l1.566,1.519
	c11.266,11.266,16.23,22.477,16.146,28.607c-0.015,1.25-0.269,2.057-0.483,2.256C86.047,294.85,70.041,292.731,52.644,276.233z
	 M497.183,275.597c12.079,12.079,20.827,22.752,25.791,29.191c-7.067,9.125-21.848,26.759-43.112,45.105
	c-14.342-9.524-31.447-11.709-40.402-11.281c-6.346,0.307-11.242,5.709-10.935,12.055c0.154,2.97,1.411,5.625,3.361,7.581
	c2.218,2.21,5.325,3.522,8.701,3.361c4.626-0.223,12.37,0.805,19.683,3.821c-16.774,12.209-36.32,23.735-58.358,32.177
	c-18.157-19.07-29.566-54.353-29.566-92.53c0.007-38.614,11.656-74.151,30.051-93.022
	C442.323,227.352,474.438,252.852,497.183,275.597z M353.57,347.054c-8.057,3.33-24.172,6.922-35.414,6.929
	c-23.789,0-40.188-11.579-48.613-19.469c9.393-8.088,27.648-20.388,51.82-20.388c8.302,0,21.279,2.042,28.415,4.183
	C350.392,328.215,351.651,337.854,353.57,347.054z M256.841,153.768c36.964-10.759,93.589-5.48,120.072,26.666
	c-14.995-3.268-30.779-5.195-47.401-5.187c-63.562,0-124.076,29.575-169.122,59.555C172.077,203.31,208.444,167.841,256.841,153.768
	z M39.161,362.011c1.25-8.756,4.496-20.627,12.922-28.638c17.411-16.521,33.427-18.609,35.837-16.337
	c0.199,0.199,0.483,1.028,0.461,2.501c-0.077,6.56-5.579,18.34-17.703,29.874C61.822,357.797,48.631,360.897,39.161,362.011z
	 M142.756,400.77c1.235-7.091,4.359-16.483,12.009-24.135c0.851-0.851,2.21-2.049,3.806-3.33c4.097,2.732,8.349,5.48,12.693,8.196
	c-2.225,3.284-4.611,6.309-6.408,8.111C157.528,396.964,149.157,399.773,142.756,400.77z M193.603,368.357
	c-0.522-0.368-1.074-0.699-1.658-0.982c-9.508-5.678-18.501-11.548-26.858-17.358c-0.207-0.161-0.43-0.331-0.659-0.476
	c-25.484-17.795-45.006-35.015-55.366-44.722c27.941-26.014,122.389-106.557,220.474-106.566c17.297,0,33.641,2.333,49.059,6.247
	c-16.721,21.908-27.211,54.261-28.953,90.005c-11.05-2.479-23.059-3.4-28.27-3.4c-46.51,0-75.372,34.148-76.583,35.599
	c-3.338,4.022-3.546,9.784-0.514,14.042c0.315,0.437,2.739,3.775,7.228,8.265c10.721,10.728,33.196,27.994,66.678,28.002
	c7.475-0.007,26.689-2.064,41.515-7.643c4.734,13.614,10.988,25.76,18.509,35.791c-15.294,3.89-31.531,6.207-48.682,6.207
	C280.554,411.345,232.746,391.508,193.603,368.357z M410.124,310.789c6.117,6.117,14.243,9.484,22.876,9.462
	c8.648,0,16.774-3.361,22.882-9.462c6.108-6.108,9.469-14.243,9.462-22.882c0.007-8.648-3.361-16.783-9.469-22.891
	c-6.108-6.108-14.243-9.484-22.86-9.469c-8.648-0.007-16.79,3.361-22.891,9.477c-6.108,6.108-9.477,14.234-9.462,22.882
	C400.648,296.546,404.016,304.687,410.124,310.789z M433.008,278.55c2.479,0,4.818,0.959,6.576,2.717
	c1.764,1.764,2.732,4.113,2.732,6.615c0,2.503-0.975,4.849-2.723,6.607c-1.757,1.757-4.106,2.724-6.615,2.732
	c-4.988,0-9.332-4.359-9.332-9.339c0.007-2.494,0.981-4.849,2.739-6.615C428.166,279.518,430.499,278.543,433.008,278.55z"/>
</svg>
