<?xml version="1.0" encoding="utf-8"?>
<!-- Generator: Adobe Illustrator 17.0.0, SVG Export Plug-In . SVG Version: 6.00 Build 0)  -->
<!DOCTYPE svg PUBLIC "-//W3C//DTD SVG 1.1//EN" "http://www.w3.org/Graphics/SVG/1.1/DTD/svg11.dtd">
<svg version="1.1" id="Calque_1" xmlns="http://www.w3.org/2000/svg" xmlns:xlink="http://www.w3.org/1999/xlink" x="0px" y="0px"
	 width="560px" height="560px" viewBox="0 0 560 560" enable-background="new 0 0 560 560" xml:space="preserve">
<path d="M465.351,237.75c0,0-25.727-26.514-25.727-26.63s25.721-26.636,25.721-26.636c5.069-5.191,3.294-9.43-3.958-9.43
	c0,0-27.203,0-27.435,0c-19.92,0-36.065,16.145-36.065,36.065s16.145,36.065,36.065,36.065c0.232,0,27.435,0,27.435,0
	C468.639,247.186,470.42,242.947,465.351,237.75z"/>
<circle cx="337.04" cy="196.562" r="14.803"/>
<path d="M448.145,219.946l-8.515-8.82l7.307-7.575c-6.618-50.142-40.164-93.35-88.068-111.666l3.428-8.698
	c2.672-6.776,1.147-11.265-0.604-13.827c-3.647-5.355-10.875-6.587-18.231-2.232l-11.235,6.801l-1.897-8.136
	c-2.11-9.039-8.612-12.247-13.547-12.247c-4.453,0-8.746,2.318-12.077,6.526l-19.512,24.72
	c-65.83,11.491-115.008,69.685-115.008,136.923v13.095c-11.875-6.136-24.19-11.65-35.9-15.736c-0.232-0.079-0.47-0.152-0.701-0.213
	c-4.068-1.397-7.844-2.098-11.241-2.098c-6.459,0-10.387,2.574-12.552,4.739c-4.209,4.215-5.215,9.966-4.483,15.883
	c-1.141-0.146-2.263-0.226-3.349-0.226c-6.465,0-10.399,2.58-12.558,4.739c-2.842,2.842-5.55,7.752-4.544,15.883
	c-1.128-0.14-2.232-0.213-3.3-0.213c-6.477,0-10.412,2.58-12.565,4.733c-3.684,3.684-7.087,10.784-2.635,23.757
	c0.061,0.244,0.134,0.482,0.22,0.72c10.344,29.679,29.813,63.286,45.659,83.646c-15.138,8.014-32.363,12.607-50.649,12.607
	c-13.254,0-26.245-2.391-38.615-7.094c-3.769-1.439-8.033-0.311-10.594,2.806c-2.562,3.111-2.861,7.508-0.738,10.936
	c45.348,73.118,123.694,116.777,209.572,116.777h27.185c107.5,0,196.788-87.074,199.667-194.379
	C448.17,311.57,448.151,220.538,448.145,219.946z M84.328,280.476c-0.592-1.647-0.921-2.964-1.098-3.958
	c4.52,0.75,11.18,4.087,13.754,6.66c3.684,3.672,9.631,3.666,13.296-0.006c1.836-1.836,2.751-4.245,2.751-6.648
	c0-2.403-0.921-4.812-2.757-6.642c-2.964-2.958-5.996-9.814-6.697-13.772c4.385,0.72,10.912,3.958,13.644,6.532
	c2.373,2.232,5.739,3.05,8.911,2.202c3.153-0.854,5.648-3.312,6.569-6.447c0.939-3.202,0.116-6.66-2.171-9.094
	c-3.007-3.19-5.874-9.741-6.551-13.583c0.958,0.159,2.287,0.482,4.007,1.098c0.262,0.098,0.537,0.177,0.805,0.25
	c33.229,11.741,72.557,36.132,87.287,50.856c22.232,22.238,22.238,58.419,0,80.651c-10.771,10.771-25.093,16.7-40.322,16.7
	s-29.551-5.935-40.316-16.7c-14.736-14.736-39.127-54.058-50.85-87.263C84.517,281.031,84.432,280.756,84.328,280.476z
	 M294.242,481.649c-0.683,0.177-1.366,0.378-2.055,0.555c-1.94,0.488-3.91,0.921-5.874,1.354c-2.8,0.598-5.611,1.153-8.46,1.622
	c-0.543,0.091-1.073,0.201-1.616,0.287c-0.952-0.75-1.824-1.525-2.641-2.348c-10.076-10.07-12.937-26.654-8.045-46.696
	c5.294-21.707,18.859-44.311,38.2-63.652c24.995-24.995,56.272-40.518,81.621-40.518c8.387,0,20.177,1.799,28.728,10.344
	c3.721,3.727,6.471,8.362,8.197,13.797C404.657,417.326,355.558,465.37,294.242,481.649z M429.317,310.35
	c-0.128,6.581-0.653,13.077-1.482,19.475c-0.159-0.171-0.281-0.354-0.445-0.518c-10.369-10.369-24.903-15.858-42.024-15.858
	c-30.612,0-66.092,17.2-94.917,46.019c-21.738,21.744-37.072,47.489-43.171,72.49c-5.331,21.872-3.056,41.115,6.093,55.565
	c-1.653,0.049-3.3,0.128-4.959,0.128h-27.185c-70.923,0-136.283-32.229-179.283-87.336c6.471,1.006,13.034,1.513,19.646,1.513
	c23.135,0,44.781-6.294,63.5-17.127c0.012,0.006,0.043,0.006,0.049,0.012c13.931,12.51,31.747,19.359,50.612,19.359
	c20.256,0,39.292-7.886,53.619-22.208c29.563-29.563,29.563-77.662,0-107.238c-8.344-8.338-23.135-19.121-40.39-29.386v-23.531
	c0-59.243,44.141-110.367,102.67-118.918c2.379-0.348,4.532-1.592,6.02-3.477l16.34-20.683l0.335,1.439
	c1.885,8.136,8.435,13.601,16.297,13.601c2.818,0,5.678-0.726,8.326-2.098c-0.573,2.702-0.317,5.495,0.781,8.118
	c1.616,3.867,5.056,7.124,9.003,8.496c48.245,16.81,80.663,62.426,80.663,113.514C429.414,221.715,429.329,309.966,429.317,310.35z"
	/>
<g>
	<path d="M504.96,203.283c-3.8,0-7.386-2.324-8.795-6.099c-1.83-4.855,0.634-10.277,5.489-12.101l35.406-13.296
		c4.843-1.818,10.283,0.634,12.101,5.495c1.83,4.855-0.634,10.277-5.489,12.101l-35.406,13.296
		C507.174,203.088,506.058,203.283,504.96,203.283z"/>
</g>
<g>
	<path d="M540.361,253.175c-1.104,0-2.214-0.195-3.306-0.604l-35.406-13.296c-4.861-1.824-7.319-7.246-5.489-12.107
		c1.824-4.861,7.246-7.307,12.101-5.495l35.406,13.296c4.861,1.824,7.319,7.246,5.489,12.107
		C547.747,250.845,544.161,253.175,540.361,253.175z"/>
</g>
</svg>
