<?xml version="1.0" encoding="utf-8"?>
<!-- Generator: Adobe Illustrator 17.0.0, SVG Export Plug-In . SVG Version: 6.00 Build 0)  -->
<!DOCTYPE svg PUBLIC "-//W3C//DTD SVG 1.1//EN" "http://www.w3.org/Graphics/SVG/1.1/DTD/svg11.dtd">
<svg version="1.1" id="Calque_1" xmlns="http://www.w3.org/2000/svg" xmlns:xlink="http://www.w3.org/1999/xlink" x="0px" y="0px"
	 width="560px" height="560px" viewBox="0 0 560 560" enable-background="new 0 0 560 560" xml:space="preserve">
<g id="Calque_1_1_">
	<path d="M445.484,242.279c0,0-22.97-23.672-22.97-23.776c0-0.103,22.964-23.782,22.964-23.782c4.526-4.635,2.941-8.419-3.533-8.419
		c0,0-24.287,0-24.495,0c-17.785,0-32.199,14.414-32.199,32.199s14.414,32.199,32.199,32.199c0.207,0,24.495,0,24.495,0
		C448.42,250.704,450.01,246.92,445.484,242.279z"/>
	<circle cx="330.926" cy="205.506" r="13.216"/>
	<path d="M430.123,226.383l-7.602-7.875l6.523-6.763c-5.909-44.767-35.859-83.344-78.628-99.698l3.061-7.766
		c2.386-6.049,1.025-10.058-0.539-12.345c-3.256-4.781-9.709-5.881-16.277-1.993l-10.03,6.072l-1.693-7.264
		c-1.883-8.07-7.689-10.935-12.095-10.935c-3.976,0-7.809,2.07-10.782,5.827l-17.421,22.07
		c-58.774,10.259-102.68,62.215-102.68,122.246v11.691c-10.603-5.478-21.598-10.401-32.052-14.05
		c-0.207-0.071-0.42-0.136-0.625-0.19c-3.632-1.247-7.003-1.873-10.036-1.873c-5.767,0-9.274,2.298-11.206,4.231
		c-3.758,3.763-4.656,8.897-4.002,14.181c-1.019-0.13-2.02-0.202-2.99-0.202c-5.772,0-9.285,2.303-11.212,4.231
		c-2.538,2.538-4.955,6.921-4.057,14.181c-1.007-0.125-1.993-0.19-2.947-0.19c-5.782,0-9.295,2.303-11.218,4.226
		c-3.289,3.289-6.327,9.629-2.352,21.21c0.054,0.218,0.119,0.431,0.196,0.642c9.235,26.498,26.617,56.503,40.764,74.681
		c-13.516,7.155-28.894,11.256-45.22,11.256c-11.833,0-23.432-2.135-34.476-6.333c-3.365-1.284-7.172-0.278-9.459,2.505
		c-2.287,2.777-2.554,6.704-0.659,9.763c40.488,65.281,110.436,104.261,187.109,104.261h24.271
		c95.978,0,175.695-77.741,178.266-173.544C430.145,308.188,430.129,226.912,430.123,226.383z M105.302,280.426
		c-0.528-1.471-0.823-2.646-0.98-3.533c4.035,0.67,9.982,3.649,12.279,5.946c3.289,3.278,8.599,3.272,11.87-0.005
		c1.639-1.639,2.456-3.79,2.456-5.935c0-2.146-0.823-4.296-2.462-5.93c-2.646-2.641-5.353-8.763-5.98-12.296
		c3.915,0.643,9.743,3.533,12.182,5.832c2.119,1.993,5.123,2.723,7.956,1.966c2.815-0.762,5.043-2.957,5.865-5.756
		c0.838-2.859,0.103-5.946-1.939-8.119c-2.684-2.848-5.245-8.697-5.849-12.128c0.855,0.142,2.042,0.431,3.578,0.98
		c0.233,0.088,0.48,0.158,0.719,0.224c29.667,10.482,64.781,32.259,77.931,45.406c19.849,19.855,19.855,52.157,0,72.006
		c-9.617,9.617-22.403,14.909-36.001,14.909c-13.597,0-26.384-5.299-35.995-14.909c-13.156-13.156-34.933-48.264-45.4-77.91
		C105.471,280.922,105.395,280.675,105.302,280.426z M292.716,460.036c-0.61,0.158-1.22,0.338-1.835,0.495
		c-1.732,0.435-3.491,0.823-5.245,1.209c-2.5,0.534-5.009,1.029-7.553,1.448c-0.485,0.082-0.959,0.179-1.443,0.256
		c-0.85-0.67-1.628-1.361-2.358-2.096c-8.996-8.991-11.55-23.797-7.182-41.691c4.727-19.38,16.837-39.562,34.105-56.83
		c22.316-22.316,50.24-36.175,72.872-36.175c7.488,0,18.015,1.607,25.649,9.235c3.322,3.328,5.778,7.466,7.318,12.318
		C391.296,402.608,347.46,445.502,292.716,460.036z M413.313,307.098c-0.114,5.875-0.583,11.676-1.323,17.387
		c-0.142-0.153-0.251-0.316-0.397-0.463c-9.258-9.258-22.234-14.158-37.52-14.158c-27.331,0-59.008,15.357-84.744,41.087
		c-19.407,19.413-33.099,42.399-38.543,64.72c-4.76,19.528-2.729,36.708,5.44,49.609c-1.476,0.043-2.947,0.114-4.427,0.114h-24.272
		c-63.32,0-121.675-28.775-160.067-77.975c5.778,0.898,11.637,1.351,17.54,1.351c20.656,0,39.982-5.619,56.694-15.291
		c0.011,0.005,0.038,0.005,0.043,0.011c12.438,11.169,28.344,17.284,45.187,17.284c18.085,0,35.081-7.04,47.872-19.827
		c26.394-26.394,26.394-69.337,0-95.743c-7.449-7.445-20.656-17.072-36.061-26.236v-21.009c0-52.893,39.41-98.537,91.665-106.172
		c2.124-0.31,4.046-1.422,5.375-3.104l14.588-18.466l0.299,1.284c1.683,7.264,7.531,12.143,14.55,12.143
		c2.516,0,5.069-0.648,7.434-1.873c-0.511,2.413-0.283,4.906,0.698,7.247c1.443,3.453,4.514,6.361,8.037,7.585
		c43.074,15.008,72.017,55.735,72.017,101.346C413.399,227.964,413.324,306.755,413.313,307.098z"/>
	<g>
		<path d="M480.849,211.507c-3.393,0-6.594-2.075-7.852-5.446c-1.634-4.334,0.566-9.175,4.901-10.804l31.611-11.87
			c4.324-1.624,9.181,0.566,10.804,4.906c1.634,4.334-0.566,9.175-4.901,10.804l-31.611,11.87
			C482.825,211.333,481.829,211.507,480.849,211.507z"/>
	</g>
	<g>
		<path d="M512.455,256.051c-0.986,0-1.977-0.174-2.951-0.539l-31.611-11.87c-4.34-1.628-6.534-6.469-4.901-10.81
			c1.628-4.34,6.469-6.523,10.804-4.906l31.611,11.87c4.34,1.628,6.534,6.469,4.901,10.81
			C519.049,253.971,515.848,256.051,512.455,256.051z"/>
	</g>
</g>
</svg>
