<?xml version="1.0" encoding="utf-8"?>
<!-- Generator: Adobe Illustrator 17.0.0, SVG Export Plug-In . SVG Version: 6.00 Build 0)  -->
<!DOCTYPE svg PUBLIC "-//W3C//DTD SVG 1.1//EN" "http://www.w3.org/Graphics/SVG/1.1/DTD/svg11.dtd">
<svg version="1.1" xmlns="http://www.w3.org/2000/svg" xmlns:xlink="http://www.w3.org/1999/xlink" x="0px" y="0px" width="560px"
	 height="560px" viewBox="0 0 560 560" enable-background="new 0 0 560 560" xml:space="preserve">
<g id="Calque_1">
	<path fill="#333333" d="M417.598,247.634c0,0-19.099-19.683-19.099-19.769c0-0.086,19.094-19.774,19.094-19.774
		c3.763-3.854,2.445-7-2.938-7c0,0-20.194,0-20.367,0c-14.788,0-26.773,11.985-26.773,26.773c0,14.788,11.985,26.773,26.773,26.773
		c0.172,0,20.367,0,20.367,0C420.039,254.639,421.361,251.493,417.598,247.634z"/>
	<circle fill="#333333" cx="322.345" cy="217.058" r="10.989"/>
	<path fill="#333333" d="M404.825,234.417l-6.321-6.548l5.424-5.623c-4.913-37.223-29.816-69.299-65.378-82.897l2.545-6.457
		c1.984-5.03,0.852-8.363-0.448-10.265c-2.707-3.975-8.073-4.89-13.534-1.657l-8.34,5.049l-1.408-6.04
		c-1.566-6.71-6.393-9.092-10.057-9.092c-3.306,0-6.493,1.721-8.965,4.845l-14.485,18.351c-48.87,8.53-85.377,51.731-85.377,101.646
		v9.721c-8.816-4.555-17.958-8.648-26.651-11.682c-0.172-0.059-0.349-0.113-0.52-0.158c-3.02-1.037-5.823-1.557-8.345-1.557
		c-4.795,0-7.711,1.911-9.318,3.518c-3.125,3.129-3.871,7.398-3.328,11.791c-0.847-0.108-1.68-0.168-2.486-0.168
		c-4.799,0-7.72,1.915-9.323,3.518c-2.11,2.11-4.12,5.755-3.373,11.791c-0.837-0.104-1.657-0.158-2.45-0.158
		c-4.808,0-7.729,1.915-9.328,3.514c-2.735,2.735-5.261,8.006-1.956,17.636c0.045,0.181,0.099,0.358,0.163,0.534
		c7.679,22.033,22.132,46.981,33.895,62.096c-11.238,5.949-24.025,9.359-37.6,9.359c-9.839,0-19.483-1.775-28.666-5.266
		c-2.798-1.068-5.963-0.231-7.865,2.083c-1.902,2.309-2.124,5.574-0.548,8.118c33.665,54.28,91.826,86.691,155.578,86.691h20.181
		c79.804,0,146.088-64.64,148.225-144.299C404.844,302.436,404.83,234.857,404.825,234.417z M134.742,279.353
		c-0.439-1.223-0.684-2.2-0.815-2.938c3.355,0.557,8.3,3.034,10.21,4.944c2.735,2.726,7.15,2.721,9.87-0.004
		c1.363-1.363,2.042-3.151,2.042-4.935s-0.684-3.572-2.047-4.931c-2.2-2.196-4.451-7.286-4.972-10.224
		c3.255,0.535,8.101,2.938,10.129,4.849c1.762,1.657,4.26,2.264,6.615,1.635c2.341-0.634,4.193-2.459,4.877-4.786
		c0.697-2.377,0.086-4.944-1.612-6.751c-2.232-2.368-4.361-7.231-4.863-10.084c0.711,0.118,1.698,0.358,2.975,0.815
		c0.194,0.073,0.399,0.131,0.598,0.186c24.668,8.716,53.864,26.823,64.798,37.754c16.504,16.509,16.509,43.368,0,59.872
		c-7.996,7.996-18.628,12.397-29.934,12.397s-21.938-4.406-29.929-12.397c-10.939-10.939-29.046-40.131-37.749-64.781
		C134.882,279.765,134.819,279.56,134.742,279.353z M290.574,428.696c-0.507,0.131-1.014,0.281-1.526,0.412
		c-1.44,0.362-2.903,0.684-4.361,1.005c-2.079,0.444-4.165,0.856-6.28,1.204c-0.403,0.068-0.797,0.149-1.2,0.213
		c-0.707-0.557-1.354-1.132-1.961-1.743c-7.48-7.476-9.604-19.787-5.972-34.665c3.93-16.114,14-32.895,28.358-47.253
		c18.555-18.555,41.774-30.079,60.592-30.079c6.226,0,14.979,1.336,21.327,7.679c2.762,2.767,4.804,6.208,6.085,10.242
		C372.541,380.945,336.092,416.611,290.574,428.696z M390.848,301.53c-0.095,4.885-0.485,9.708-1.1,14.457
		c-0.118-0.127-0.209-0.263-0.33-0.385c-7.698-7.698-18.487-11.772-31.197-11.772c-22.725,0-49.064,12.769-70.463,34.163
		c-16.137,16.142-27.521,35.254-32.048,53.814c-3.958,16.237-2.269,30.522,4.523,41.249c-1.227,0.036-2.45,0.095-3.681,0.095H236.37
		c-52.65,0-101.171-23.926-133.093-64.835c4.804,0.747,9.676,1.123,14.584,1.123c17.175,0,33.244-4.672,47.14-12.714
		c0.009,0.004,0.032,0.004,0.036,0.009c10.342,9.287,23.568,14.371,37.572,14.371c15.037,0,29.169-5.854,39.805-16.486
		c21.946-21.946,21.946-57.653,0-79.609c-6.194-6.19-17.175-14.195-29.984-21.815v-17.469c0-43.98,32.769-81.932,76.218-88.28
		c1.766-0.258,3.364-1.182,4.469-2.581l12.13-15.354l0.249,1.068c1.399,6.04,6.262,10.097,12.098,10.097
		c2.092,0,4.215-0.539,6.181-1.557c-0.425,2.006-0.235,4.079,0.58,6.026c1.2,2.871,3.753,5.289,6.683,6.307
		c35.815,12.479,59.881,46.343,59.881,84.268C390.92,235.731,390.857,301.245,390.848,301.53z"/>
	<g>
		<path fill="#333333" d="M447.003,222.048c-2.821,0-5.483-1.725-6.529-4.528c-1.359-3.604,0.471-7.629,4.075-8.983l26.284-9.87
			c3.595-1.35,7.634,0.471,8.983,4.079c1.359,3.604-0.471,7.629-4.075,8.983l-26.284,9.87
			C448.646,221.903,447.818,222.048,447.003,222.048z"/>
	</g>
	<g>
		<path fill="#333333" d="M473.283,259.085c-0.82,0-1.644-0.145-2.454-0.448l-26.284-9.87c-3.609-1.354-5.433-5.379-4.075-8.988
			c1.354-3.609,5.379-5.424,8.983-4.079l26.284,9.87c3.609,1.354,5.433,5.379,4.075,8.988
			C478.766,257.356,476.104,259.085,473.283,259.085z"/>
	</g>
</g>
<g id="Calque_2">
	<circle fill="none" stroke="#333333" stroke-width="11" stroke-miterlimit="10" cx="280" cy="279" r="266"/>
</g>
</svg>
