<?xml version="1.0" encoding="utf-8"?>
<!-- Generator: Adobe Illustrator 17.0.0, SVG Export Plug-In . SVG Version: 6.00 Build 0)  -->
<!DOCTYPE svg PUBLIC "-//W3C//DTD SVG 1.1//EN" "http://www.w3.org/Graphics/SVG/1.1/DTD/svg11.dtd">
<svg version="1.1" xmlns="http://www.w3.org/2000/svg" xmlns:xlink="http://www.w3.org/1999/xlink" x="0px" y="0px" width="560px"
	 height="560px" viewBox="0 0 560 560" enable-background="new 0 0 560 560" xml:space="preserve">
<g id="Calque_2">
	<circle fill="none" stroke="#333333" stroke-width="11" stroke-miterlimit="10" cx="280" cy="280" r="266"/>
</g>
<g id="Calque_1">
	<g>
		<path fill="#333333" d="M516.04,301.751h-68.455c2.289-5.307,3.624-11.399,3.624-18.402c0-18.44-23.541-45.185-50.376-57.236
			c-0.671-0.303-1.374-0.406-2.064-0.47V170.29c0-3.565-2.883-6.448-6.448-6.448h-35.475c0.045-0.98,0.11-1.967,0.11-2.94
			c0-13.45-3.907-25.984-10.548-36.636c-0.032-0.045-0.032-0.103-0.064-0.148c-0.013-0.019-0.038-0.032-0.058-0.051
			c-12.309-19.582-34.037-32.664-58.822-32.664c-38.318,0-69.499,31.181-69.499,69.499c0,0.974,0.071,1.96,0.11,2.94h-35.469
			c-3.565,0-6.448,2.883-6.448,6.448v55.431c-0.587,0.091-1.173,0.148-1.747,0.406c-39.163,17.957-58.629,48.19-63.839,57.365
			c-9.769,2.766-17.899,9.446-22.561,18.26H43.961c-3.565,0-6.448,2.883-6.448,6.448s2.883,6.448,6.448,6.448h40.046
			c-0.161,1.399-0.264,2.818-0.264,4.262c0,2.843,0.406,5.822,1.245,9.091c0.245,0.967,0.76,1.78,1.374,2.508
			c-1.702,3.16-2.624,6.557-2.624,10.078c0,2.354,0.477,4.758,1.463,7.369c0.942,2.515,3.353,4.172,6.035,4.172h58.68
			c2.682,0,5.087-1.664,6.035-4.172c0.98-2.605,1.463-5.01,1.463-7.369c0-3.527-0.916-6.924-2.624-10.084
			c0.612-0.722,1.128-1.541,1.374-2.502c0.838-3.269,1.245-6.248,1.245-9.091c0-1.444-0.103-2.862-0.264-4.262h19.014v18.956
			c0,3.565,2.883,6.448,6.448,6.448h18.969v13.385c0,3.565,2.883,6.448,6.448,6.448h35.172l-0.523,9.001
			c-0.11,1.773,0.529,3.514,1.747,4.803c1.219,1.289,2.915,2.018,4.693,2.018h26.765c-0.348,0.677-0.69,1.348-1.044,2.024
			c-3.031,5.874-6.119,11.915-8.827,18.047H79.965c-3.565,0-6.448,2.883-6.448,6.448s2.883,6.448,6.448,6.448h181.16
			c-6.003,19.614-4.7,39.769,19.156,58.545c1.186,0.929,2.585,1.38,3.978,1.38c1.915,0,3.804-0.845,5.074-2.463
			c2.199-2.798,1.721-6.848-1.083-9.052c-19.375-15.236-19.794-31.123-13.611-48.409h212.735c3.565,0,6.448-2.883,6.448-6.448
			s-2.883-6.448-6.448-6.448H280.165c1.909-3.965,3.978-8.002,6.105-12.134c1.348-2.612,2.708-5.262,4.049-7.938h35.482
			c0.051,0.006,0.103,0.006,0.129,0c3.565,0,6.448-2.883,6.448-6.448c0-0.574-0.071-1.128-0.213-1.657l-0.451-7.718H364.9
			c3.565,0,6.448-2.883,6.448-6.448V340.05h20.967c3.565,0,6.448-2.883,6.448-6.448v-0.593c12.631-1.67,28.989-6.977,40.072-18.363
			h77.204c3.565,0,6.448-2.883,6.448-6.448S519.606,301.751,516.04,301.751z M343.945,158.742
			c-10.039-4.017-17.673-8.221-22.876-11.445c7.821-4.198,13.714-7.711,17.673-10.188
			C341.824,143.732,343.649,151.037,343.945,158.742z M307.877,154.067c3.024,2.172,8.505,5.764,16.255,9.781h-37.396
			C294.582,160.432,301.63,157.143,307.877,154.067z M230.846,160.902c0-31.213,25.391-56.604,56.604-56.604
			c18.086,0,34.172,8.556,44.54,21.799c-10.696,6.687-37.467,22.064-79.854,37.745h-21.219
			C230.873,162.856,230.846,161.882,230.846,160.902z M120.566,294.968c13.198,0,23.934,10.742,23.934,23.941
			c0,0.348-0.013,0.69-0.032,1.044h-1.928H98.586h-1.928c-0.019-0.355-0.032-0.696-0.032-1.044
			C96.632,305.71,107.374,294.968,120.566,294.968z M96.748,339.237c0.49-2.695,2.366-4.894,4.068-6.383h39.498
			c1.702,1.49,3.578,3.681,4.068,6.383H96.748z M153.133,301.751c-5.3-10.026-15.094-17.286-26.68-19.163
			c7.815-11.213,23.856-30.059,49.692-42.922v62.084L153.133,301.751L153.133,301.751z M214.457,340.05h29.879l-0.4,6.937h-29.472
			v-6.937H214.457z M296.264,362.817c4.92-11.909,8.008-24.185,5.493-36.274c3.997-3.798,6.518-9.123,6.518-15.055
			c0-11.483-9.343-20.826-20.826-20.826c-11.477,0-20.819,9.343-20.819,20.826c0,11.477,9.343,20.819,20.819,20.819
			c0.716,0,1.393-0.142,2.089-0.213c1.103,9.646-2.25,19.833-7.292,30.717h-26.32l0.909-15.565l0.774-13.27c0,0,0,0,0-0.006l0,0
			l4.017-69.035h51.652l4.017,69.035l0,0c0,0,0,0,0,0.006l0.774,13.27l0.909,15.565h-22.715L296.264,362.817L296.264,362.817z
			 M295.369,311.532c-0.909-1.374-1.876-2.747-2.979-4.113c-2.25-2.766-6.312-3.179-9.072-0.942
			c-2.766,2.25-3.179,6.312-0.942,9.072c0.896,1.103,1.689,2.205,2.405,3.321c-3.05-1.103-5.262-3.965-5.262-7.389
			c0-4.378,3.559-7.93,7.924-7.93c4.378,0,7.931,3.559,7.931,7.93C295.381,311.5,295.369,311.513,295.369,311.532z M358.452,346.995
			h-27.487l-0.4-6.937h27.886V346.995z M385.868,327.155h-20.967h-35.088l-4.017-69.042c-0.148-2.553-1.773-4.693-4.017-5.603
			c-0.748-0.303-1.567-0.47-2.418-0.47h-63.813c-0.851,0-1.67,0.167-2.418,0.47c-2.244,0.909-3.869,3.044-4.017,5.603l-4.017,69.042
			h-37.08h-18.969V176.738h36.062h124.705h36.068v150.417H385.868z M398.764,319.927v-37.97l6.08-1.483
			c3.456-0.845,5.577-4.333,4.733-7.796c-0.845-3.456-4.307-5.584-7.796-4.733l-3.024,0.735v-29.24
			c23.115,11.664,39.55,33.792,39.55,43.909C438.313,310.307,411.62,317.851,398.764,319.927z"/>
		<path fill="#333333" d="M287.451,193.624c-11.483,0-20.826,9.343-20.826,20.826s9.343,20.826,20.826,20.826
			c11.477,0,20.819-9.343,20.819-20.826S298.934,193.624,287.451,193.624z M287.451,222.38c-4.378,0-7.931-3.559-7.931-7.931
			c0-4.371,3.559-7.93,7.931-7.93s7.924,3.559,7.924,7.93C295.375,218.822,291.823,222.38,287.451,222.38z"/>
	</g>
</g>
</svg>
