<?xml version="1.0" encoding="utf-8"?>
<!-- Generator: Adobe Illustrator 17.0.0, SVG Export Plug-In . SVG Version: 6.00 Build 0)  -->
<!DOCTYPE svg PUBLIC "-//W3C//DTD SVG 1.1//EN" "http://www.w3.org/Graphics/SVG/1.1/DTD/svg11.dtd">
<svg version="1.1" id="Calque_1" xmlns="http://www.w3.org/2000/svg" xmlns:xlink="http://www.w3.org/1999/xlink" x="0px" y="0px"
	 width="560px" height="560px" viewBox="0 0 560 560" enable-background="new 0 0 560 560" xml:space="preserve">
<g>
	<path d="M537.941,303.769h-74.807c2.501-5.799,3.96-12.457,3.96-20.109c0-20.151-25.725-49.378-55.05-62.547
		c-0.733-0.331-1.501-0.444-2.255-0.514V160.11c0-3.896-3.15-7.046-7.046-7.046h-38.767c0.049-1.071,0.12-2.149,0.12-3.213
		c0-14.698-4.27-28.395-11.527-40.035c-0.035-0.049-0.035-0.113-0.07-0.162c-0.014-0.021-0.042-0.035-0.063-0.056
		c-13.451-21.399-37.195-35.695-64.28-35.695c-41.874,0-75.948,34.074-75.948,75.948c0,1.064,0.078,2.142,0.12,3.213h-38.76
		c-3.896,0-7.046,3.15-7.046,7.046v60.574c-0.641,0.099-1.282,0.162-1.909,0.444c-42.797,19.623-64.069,52.661-69.762,62.688
		c-10.675,3.023-19.56,10.322-24.654,19.954H22.059c-3.896,0-7.046,3.15-7.046,7.046s3.15,7.046,7.046,7.046h43.762
		c-0.176,1.529-0.289,3.079-0.289,4.657c0,3.107,0.444,6.362,1.36,9.935c0.268,1.057,0.831,1.945,1.501,2.741
		c-1.86,3.453-2.868,7.166-2.868,11.013c0,2.572,0.521,5.2,1.599,8.053c1.029,2.748,3.664,4.559,6.595,4.559h64.125
		c2.931,0,5.559-1.818,6.595-4.559c1.071-2.847,1.599-5.475,1.599-8.053c0-3.854-1.001-7.567-2.868-11.02
		c0.669-0.789,1.233-1.684,1.501-2.734c0.916-3.572,1.36-6.828,1.36-9.935c0-1.578-0.113-3.128-0.289-4.657h20.778v20.715
		c0,3.896,3.15,7.046,7.046,7.046h20.729v14.627c0,3.896,3.15,7.046,7.046,7.046h38.436l-0.571,9.836
		c-0.12,1.938,0.578,3.84,1.909,5.249c1.332,1.409,3.185,2.205,5.129,2.205h29.248c-0.38,0.74-0.754,1.473-1.141,2.212
		c-3.312,6.419-6.687,13.021-9.646,19.722H61.403c-3.896,0-7.046,3.15-7.046,7.046s3.15,7.046,7.046,7.046h197.97
		c-6.56,21.434-5.136,43.459,20.933,63.977c1.296,1.015,2.825,1.508,4.347,1.508c2.093,0,4.157-0.923,5.545-2.692
		c2.403-3.058,1.881-7.483-1.184-9.892c-21.173-16.65-21.631-34.011-14.874-52.901h232.474c3.896,0,7.046-3.15,7.046-7.046
		c0-3.896-3.15-7.046-7.046-7.046H280.18c2.086-4.333,4.347-8.744,6.672-13.26c1.473-2.854,2.959-5.75,4.425-8.674h38.774
		c0.056,0.007,0.113,0.007,0.141,0c3.896,0,7.046-3.15,7.046-7.046c0-0.627-0.078-1.233-0.233-1.811l-0.493-8.434h36.265
		c3.896,0,7.046-3.15,7.046-7.046v-14.627h22.913c3.896,0,7.046-3.15,7.046-7.046v-0.648c13.803-1.825,31.679-7.624,43.79-20.067
		h84.368c3.896,0,7.046-3.15,7.046-7.046S541.838,303.769,537.941,303.769z M349.878,147.491
		c-10.971-4.39-19.313-8.984-24.999-12.507c8.547-4.587,14.987-8.427,19.313-11.133C347.56,131.088,349.554,139.071,349.878,147.491
		z M310.463,142.382c3.305,2.374,9.294,6.299,17.763,10.689H287.36C295.934,149.337,303.636,145.743,310.463,142.382z
		 M226.285,149.851c0-34.109,27.747-61.856,61.856-61.856c19.764,0,37.343,9.35,48.673,23.822
		c-11.689,7.307-40.944,24.111-87.264,41.247h-23.188C226.314,151.986,226.285,150.922,226.285,149.851z M105.772,296.357
		c14.423,0,26.155,11.739,26.155,26.162c0,0.38-0.014,0.754-0.035,1.141h-2.107H81.752h-2.107c-0.021-0.388-0.035-0.761-0.035-1.141
		C79.617,308.096,91.356,296.357,105.772,296.357z M79.744,344.734c0.535-2.945,2.586-5.348,4.446-6.975h43.163
		c1.86,1.628,3.91,4.023,4.446,6.975H79.744z M141.361,303.769c-5.792-10.956-16.495-18.89-29.156-20.941
		c8.54-12.253,26.07-32.848,54.303-46.905v67.845H141.361z M208.375,345.622h32.651l-0.437,7.581h-32.207v-7.581H208.375z
		 M297.773,370.501c5.376-13.014,8.751-26.429,6.003-39.64c4.368-4.15,7.123-9.97,7.123-16.452c0-12.549-10.21-22.758-22.758-22.758
		c-12.542,0-22.751,10.21-22.751,22.758c0,12.542,10.21,22.751,22.751,22.751c0.782,0,1.522-0.155,2.283-0.233
		c1.205,10.541-2.459,21.673-7.969,33.567h-28.762l0.993-17.009l0.846-14.501c0,0,0,0,0-0.007l0,0l4.39-75.441h56.445l4.39,75.441
		l0,0c0,0,0,0,0,0.007l0.846,14.501l0.993,17.009h-24.823V370.501z M296.794,314.458c-0.993-1.501-2.05-3.002-3.255-4.495
		c-2.459-3.023-6.898-3.474-9.914-1.029c-3.023,2.459-3.474,6.898-1.029,9.914c0.979,1.205,1.846,2.41,2.628,3.629
		c-3.333-1.205-5.75-4.333-5.75-8.075c0-4.784,3.889-8.666,8.659-8.666c4.784,0,8.667,3.889,8.667,8.666
		C296.808,314.423,296.794,314.437,296.794,314.458z M365.731,353.211h-30.037l-0.437-7.581h30.474V353.211z M395.691,331.53
		h-22.913h-38.344l-4.39-75.448c-0.162-2.79-1.938-5.129-4.39-6.123c-0.817-0.331-1.712-0.514-2.642-0.514h-69.734
		c-0.93,0-1.825,0.183-2.642,0.514c-2.452,0.993-4.228,3.326-4.39,6.123l-4.39,75.448h-40.521h-20.729V167.156h39.408H356.29h39.415
		V331.53H395.691z M409.783,323.632v-41.493l6.644-1.621c3.777-0.923,6.095-4.735,5.172-8.519c-0.923-3.777-4.707-6.102-8.519-5.172
		l-3.305,0.803v-31.953c25.26,12.746,43.22,36.928,43.22,47.983C453.002,313.119,423.832,321.363,409.783,323.632z"/>
	<path d="M288.142,185.609c-12.549,0-22.758,10.21-22.758,22.758s10.21,22.758,22.758,22.758c12.542,0,22.751-10.21,22.751-22.758
		S300.69,185.609,288.142,185.609z M288.142,217.034c-4.784,0-8.667-3.889-8.667-8.667c0-4.777,3.889-8.666,8.667-8.666
		s8.659,3.889,8.659,8.666C296.801,213.145,292.919,217.034,288.142,217.034z"/>
</g>
</svg>
