<?xml version="1.0" encoding="utf-8"?>
<!-- Generator: Adobe Illustrator 17.0.0, SVG Export Plug-In . SVG Version: 6.00 Build 0)  -->
<!DOCTYPE svg PUBLIC "-//W3C//DTD SVG 1.1//EN" "http://www.w3.org/Graphics/SVG/1.1/DTD/svg11.dtd">
<svg version="1.1" id="Calque_1" xmlns="http://www.w3.org/2000/svg" xmlns:xlink="http://www.w3.org/1999/xlink" x="0px" y="0px"
	 width="560px" height="560px" viewBox="0 0 560 560" enable-background="new 0 0 560 560" xml:space="preserve">
<g id="Calque_1_1_">
	<g>
		<path d="M548.191,304.614h-77.469c2.59-6.006,4.101-12.9,4.101-20.825c0-20.868-26.641-51.135-57.009-64.772
			c-0.759-0.343-1.555-0.459-2.336-0.532v-62.641c0-4.034-3.263-7.297-7.297-7.297h-40.146c0.051-1.109,0.124-2.226,0.124-3.327
			c0-15.221-4.421-29.405-11.937-41.46c-0.036-0.051-0.036-0.117-0.072-0.167c-0.015-0.021-0.043-0.036-0.066-0.058
			c-13.93-22.16-38.519-36.965-66.567-36.965c-43.363,0-78.65,35.287-78.65,78.65c0,1.102,0.08,2.218,0.124,3.327h-40.139
			c-4.034,0-7.297,3.263-7.297,7.297v62.73c-0.664,0.103-1.327,0.167-1.977,0.459c-44.32,20.321-66.349,54.535-72.245,64.918
			c-11.055,3.13-20.256,10.69-25.532,20.664h-49.85c-4.034,0-7.297,3.263-7.297,7.297s3.263,7.297,7.297,7.297h45.319
			c-0.182,1.583-0.299,3.189-0.299,4.823c0,3.217,0.459,6.589,1.409,10.288c0.277,1.094,0.86,2.014,1.555,2.838
			c-1.926,3.576-2.97,7.42-2.97,11.405c0,2.664,0.54,5.384,1.656,8.339c1.066,2.846,3.794,4.721,6.83,4.721h66.407
			c3.035,0,5.757-1.883,6.83-4.721c1.109-2.948,1.656-5.67,1.656-8.339c0-3.991-1.037-7.836-2.969-11.412
			c0.693-0.817,1.277-1.744,1.555-2.831c0.948-3.699,1.409-7.071,1.409-10.288c0-1.634-0.117-3.239-0.299-4.823h21.518v21.452
			c0,4.034,3.263,7.297,7.297,7.297h21.467v15.147c0,4.034,3.263,7.297,7.297,7.297h39.803l-0.592,10.186
			c-0.124,2.006,0.599,3.977,1.977,5.435c1.38,1.459,3.299,2.284,5.311,2.284h30.289c-0.394,0.766-0.781,1.525-1.181,2.29
			c-3.43,6.647-6.925,13.484-9.989,20.423H54.697c-4.034,0-7.297,3.263-7.297,7.297s3.263,7.297,7.297,7.297h205.014
			c-6.793,22.197-5.319,45.005,21.678,66.254c1.342,1.051,2.925,1.562,4.502,1.562c2.167,0,4.305-0.956,5.742-2.787
			c2.489-3.166,1.948-7.75-1.226-10.244c-21.926-17.242-22.4-35.221-15.403-54.783h240.746c4.034,0,7.297-3.263,7.297-7.297
			c0-4.034-3.263-7.297-7.297-7.297H281.258c2.16-4.487,4.502-9.056,6.909-13.732c1.526-2.956,3.065-5.955,4.582-8.983h40.154
			c0.058,0.007,0.117,0.007,0.146,0c4.034,0,7.297-3.263,7.297-7.297c0-0.65-0.08-1.276-0.241-1.875l-0.51-8.734h37.556
			c4.034,0,7.297-3.263,7.297-7.297v-15.149h23.728c4.034,0,7.297-3.263,7.297-7.297v-0.671c14.294-1.89,32.806-7.896,45.348-20.781
			h87.37c4.034,0,7.297-3.263,7.297-7.297C555.487,307.875,552.227,304.614,548.191,304.614z M353.436,142.775
			c-11.361-4.546-20-9.303-25.888-12.952c8.851-4.751,15.52-8.726,20-11.529C351.036,125.788,353.101,134.055,353.436,142.775z
			 M312.619,137.484c3.422,2.458,9.625,6.523,18.395,11.069h-42.32C297.573,144.687,305.549,140.965,312.619,137.484z
			 M225.445,145.219c0-35.323,28.734-64.057,64.057-64.057c20.467,0,38.671,9.683,50.405,24.669
			c-12.104,7.567-42.4,24.969-90.369,42.715h-24.013C225.476,147.43,225.445,146.328,225.445,145.219z M100.644,296.938
			c14.936,0,27.085,12.156,27.085,27.093c0,0.394-0.015,0.781-0.036,1.181h-2.182H75.77h-2.182
			c-0.021-0.402-0.036-0.788-0.036-1.181C73.559,309.094,85.715,296.938,100.644,296.938z M73.69,347.036
			c0.555-3.05,2.678-5.538,4.604-7.223h44.699c1.926,1.686,4.049,4.166,4.604,7.223H73.69z M137.499,304.614
			c-5.998-11.346-17.081-19.562-30.193-21.686c8.844-12.689,26.997-34.017,56.235-48.574v70.259L137.499,304.614L137.499,304.614z
			 M206.898,347.956h33.813l-0.453,7.85h-33.353v-7.85H206.898z M299.477,373.721c5.568-13.477,9.062-27.369,6.216-41.05
			c4.523-4.298,7.376-10.324,7.376-17.037c0-12.995-10.573-23.568-23.568-23.568c-12.988,0-23.56,10.573-23.56,23.568
			c0,12.988,10.573,23.56,23.56,23.56c0.81,0,1.576-0.161,2.364-0.241c1.248,10.916-2.546,22.444-8.252,34.762h-29.786l1.029-17.615
			l0.876-15.017c0,0,0,0,0-0.007l0,0l4.546-78.125h58.453l4.546,78.125l0,0c0,0,0,0,0,0.007l0.876,15.017l1.029,17.615h-25.706
			L299.477,373.721L299.477,373.721z M298.464,315.683c-1.029-1.555-2.123-3.109-3.371-4.655c-2.546-3.13-7.143-3.598-10.267-1.066
			c-3.13,2.546-3.598,7.143-1.066,10.267c1.014,1.248,1.911,2.495,2.722,3.758c-3.452-1.248-5.955-4.487-5.955-8.362
			c0-4.954,4.028-8.974,8.967-8.974c4.954,0,8.975,4.028,8.975,8.974C298.477,315.647,298.464,315.661,298.464,315.683z
			 M369.853,355.815h-31.106l-0.453-7.85h31.558v7.85H369.853z M400.879,333.363h-23.728h-39.708l-4.546-78.133
			c-0.168-2.889-2.006-5.311-4.546-6.341c-0.846-0.343-1.773-0.532-2.736-0.532H253.4c-0.963,0-1.89,0.189-2.736,0.532
			c-2.539,1.029-4.378,3.445-4.546,6.341l-4.546,78.133h-41.962h-21.467V163.14h40.81h141.125h40.817v170.223L400.879,333.363
			L400.879,333.363z M415.473,325.183v-42.97l6.881-1.678c3.911-0.956,6.311-4.904,5.356-8.823
			c-0.956-3.911-4.874-6.319-8.823-5.356l-3.422,0.832v-33.09c26.159,13.2,44.758,38.241,44.758,49.691
			C460.23,314.296,430.022,322.834,415.473,325.183z"/>
		<path d="M289.503,182.25c-12.995,0-23.568,10.573-23.568,23.568s10.573,23.568,23.568,23.568c12.988,0,23.56-10.573,23.56-23.568
			S302.498,182.25,289.503,182.25z M289.503,214.792c-4.954,0-8.975-4.028-8.975-8.975c0-4.947,4.028-8.974,8.975-8.974
			c4.948,0,8.967,4.028,8.967,8.974C298.471,210.765,294.451,214.792,289.503,214.792z"/>
	</g>
</g>
</svg>
